<svg id="Layer_1" xmlns="http://www.w3.org/2000/svg" viewBox="0 0 495.9 107"><style>.Arched_x0020_Green{fill:url(#SVGID_1_);stroke:#fff;stroke-width:.25;stroke-miterlimit:1}.st0{fill:#01557a}</style><linearGradient id="SVGID_1_" gradientUnits="userSpaceOnUse" x1="-174.879" y1="369.866" x2="-174.172" y2="369.159"><stop offset="0" stop-color="#20ac4b"/><stop offset=".983" stop-color="#19361a"/></linearGradient><path class="st0" d="M130.8 19.7H24.3v23.7h106.5v19.7H24.3v23.7h106.5v19.7H0V0h130.8zM157.6 0h24.3v106.5h-24.3zM448 77.2l19.3 29.6 27.3-.1-19.9-30.8-26.7 1.3zm-102.8 5.1l-15.7 24.4 27.3.1 16.9-25.9-28.5 1.4zM426.1.4H398l-50.1 77.8 31-5.2L412 22l26.7 40.9 25-4.2L426.1.4zm-130 106.1H268L199.4.2l27.3-.1L282 84.9 337.3.1l27.3.1z"/></svg>